<svg width="446" height="422" viewBox="0 0 446 422" fill="none" xmlns="http://www.w3.org/2000/svg">
<rect width="446" height="422" fill="white"/>
<rect x="25" y="10" width="260" height="55" fill="#6FCA4B"/>
<rect x="24" y="78" width="261" height="55" fill="#112E58"/>
<path d="M334.969 38V30H337.672C338.299 30 338.813 30.1133 339.211 30.3398C339.612 30.5638 339.909 30.8672 340.102 31.25C340.294 31.6328 340.391 32.0599 340.391 32.5312C340.391 33.0026 340.294 33.431 340.102 33.8164C339.911 34.2018 339.617 34.5091 339.219 34.7383C338.82 34.9648 338.31 35.0781 337.688 35.0781H335.75V34.2188H337.656C338.086 34.2188 338.431 34.1445 338.691 33.9961C338.952 33.8477 339.141 33.6471 339.258 33.3945C339.378 33.1393 339.438 32.8516 339.438 32.5312C339.438 32.2109 339.378 31.9245 339.258 31.6719C339.141 31.4193 338.951 31.2214 338.688 31.0781C338.424 30.9323 338.076 30.8594 337.641 30.8594H335.938V38H334.969ZM341.826 38V32H342.717V32.9062H342.779C342.889 32.6094 343.087 32.3685 343.373 32.1836C343.66 31.9987 343.982 31.9062 344.342 31.9062C344.41 31.9062 344.494 31.9076 344.596 31.9102C344.697 31.9128 344.774 31.9167 344.826 31.9219V32.8594C344.795 32.8516 344.723 32.8398 344.611 32.8242C344.502 32.806 344.386 32.7969 344.264 32.7969C343.972 32.7969 343.712 32.8581 343.482 32.9805C343.256 33.1003 343.076 33.2669 342.943 33.4805C342.813 33.6914 342.748 33.9323 342.748 34.2031V38H341.826ZM345.919 38V32H346.841V38H345.919ZM346.388 31C346.208 31 346.053 30.9388 345.923 30.8164C345.795 30.694 345.731 30.5469 345.731 30.375C345.731 30.2031 345.795 30.056 345.923 29.9336C346.053 29.8112 346.208 29.75 346.388 29.75C346.567 29.75 346.721 29.8112 346.849 29.9336C346.979 30.056 347.044 30.2031 347.044 30.375C347.044 30.5469 346.979 30.694 346.849 30.8164C346.721 30.9388 346.567 31 346.388 31ZM348.529 38V32H349.42V32.9375H349.498C349.623 32.6172 349.825 32.3685 350.104 32.1914C350.382 32.0117 350.717 31.9219 351.107 31.9219C351.503 31.9219 351.833 32.0117 352.096 32.1914C352.361 32.3685 352.568 32.6172 352.717 32.9375H352.779C352.933 32.6276 353.163 32.3815 353.471 32.1992C353.778 32.0143 354.146 31.9219 354.576 31.9219C355.113 31.9219 355.551 32.0898 355.893 32.4258C356.234 32.7591 356.404 33.2786 356.404 33.9844V38H355.482V33.9844C355.482 33.5417 355.361 33.2253 355.119 33.0352C354.877 32.8451 354.592 32.75 354.264 32.75C353.842 32.75 353.515 32.8776 353.283 33.1328C353.051 33.3854 352.936 33.7057 352.936 34.0937V38H351.998V33.8906C351.998 33.5495 351.887 33.2747 351.666 33.0664C351.445 32.8555 351.16 32.75 350.811 32.75C350.571 32.75 350.347 32.8138 350.139 32.9414C349.933 33.069 349.766 33.2461 349.639 33.4727C349.514 33.6966 349.451 33.9557 349.451 34.25V38H348.529ZM359.855 38.1406C359.475 38.1406 359.13 38.069 358.82 37.9258C358.51 37.7799 358.264 37.5703 358.082 37.2969C357.9 37.0208 357.809 36.6875 357.809 36.2969C357.809 35.9531 357.876 35.6745 358.012 35.4609C358.147 35.2448 358.328 35.0755 358.555 34.9531C358.781 34.8307 359.031 34.7396 359.305 34.6797C359.581 34.6172 359.858 34.5677 360.137 34.5313C360.501 34.4844 360.797 34.4492 361.023 34.4258C361.253 34.3997 361.419 34.3568 361.523 34.2969C361.63 34.237 361.684 34.1328 361.684 33.9844V33.9531C361.684 33.5677 361.578 33.2682 361.367 33.0547C361.159 32.8411 360.842 32.7344 360.418 32.7344C359.978 32.7344 359.633 32.8307 359.383 33.0234C359.133 33.2161 358.957 33.4219 358.855 33.6406L357.98 33.3281C358.137 32.9635 358.345 32.6797 358.605 32.4766C358.868 32.2708 359.155 32.1276 359.465 32.0469C359.777 31.9635 360.085 31.9219 360.387 31.9219C360.579 31.9219 360.801 31.9453 361.051 31.9922C361.303 32.0365 361.547 32.1289 361.781 32.2695C362.018 32.4102 362.215 32.6224 362.371 32.9062C362.527 33.1901 362.605 33.5703 362.605 34.0469V38H361.684V37.1875H361.637C361.574 37.3177 361.47 37.457 361.324 37.6055C361.178 37.7539 360.984 37.8802 360.742 37.9844C360.5 38.0885 360.204 38.1406 359.855 38.1406ZM359.996 37.3125C360.361 37.3125 360.668 37.2409 360.918 37.0977C361.171 36.9544 361.361 36.7695 361.488 36.543C361.618 36.3164 361.684 36.0781 361.684 35.8281V34.9844C361.645 35.0312 361.559 35.0742 361.426 35.1133C361.296 35.1497 361.145 35.1823 360.973 35.2109C360.803 35.237 360.638 35.2604 360.477 35.2812C360.318 35.2995 360.189 35.3151 360.09 35.3281C359.85 35.3594 359.626 35.4102 359.418 35.4805C359.212 35.5482 359.046 35.651 358.918 35.7891C358.793 35.9245 358.73 36.1094 358.73 36.3437C358.73 36.6641 358.849 36.9062 359.086 37.0703C359.326 37.2318 359.629 37.3125 359.996 37.3125ZM364.288 38V32H365.179V32.9062H365.241C365.351 32.6094 365.549 32.3685 365.835 32.1836C366.121 31.9987 366.444 31.9062 366.804 31.9062C366.871 31.9062 366.956 31.9076 367.058 31.9102C367.159 31.9128 367.236 31.9167 367.288 31.9219V32.8594C367.257 32.8516 367.185 32.8398 367.073 32.8242C366.964 32.806 366.848 32.7969 366.726 32.7969C366.434 32.7969 366.174 32.8581 365.944 32.9805C365.718 33.1003 365.538 33.2669 365.405 33.4805C365.275 33.6914 365.21 33.9323 365.21 34.2031V38H364.288ZM369.157 40.25C369.001 40.25 368.862 40.237 368.739 40.2109C368.617 40.1875 368.532 40.1641 368.485 40.1406L368.72 39.3281C368.944 39.3854 369.142 39.4063 369.313 39.3906C369.485 39.375 369.638 39.2982 369.771 39.1602C369.906 39.0247 370.03 38.8047 370.142 38.5L370.313 38.0313L368.095 32H369.095L370.751 36.7812H370.813L372.47 32H373.47L370.923 38.875C370.808 39.1849 370.666 39.4414 370.497 39.6445C370.328 39.8503 370.131 40.0026 369.907 40.1016C369.686 40.2005 369.436 40.25 369.157 40.25ZM384.343 32.5H383.374C383.317 32.2214 383.216 31.9766 383.073 31.7656C382.933 31.5547 382.761 31.3776 382.558 31.2344C382.357 31.0885 382.134 30.9792 381.89 30.9062C381.645 30.8333 381.39 30.7969 381.124 30.7969C380.64 30.7969 380.201 30.9193 379.808 31.1641C379.417 31.4089 379.106 31.7695 378.874 32.2461C378.645 32.7227 378.53 33.3073 378.53 34C378.53 34.6927 378.645 35.2773 378.874 35.7539C379.106 36.2305 379.417 36.5911 379.808 36.8359C380.201 37.0807 380.64 37.2031 381.124 37.2031C381.39 37.2031 381.645 37.1667 381.89 37.0937C382.134 37.0208 382.357 36.9128 382.558 36.7695C382.761 36.6237 382.933 36.4453 383.073 36.2344C383.216 36.0208 383.317 35.776 383.374 35.5H384.343C384.27 35.9089 384.137 36.2747 383.944 36.5977C383.752 36.9206 383.512 37.1953 383.226 37.4219C382.939 37.6458 382.618 37.8164 382.261 37.9336C381.907 38.0508 381.528 38.1094 381.124 38.1094C380.442 38.1094 379.835 37.9427 379.304 37.6094C378.772 37.276 378.354 36.8021 378.05 36.1875C377.745 35.5729 377.593 34.8437 377.593 34C377.593 33.1562 377.745 32.4271 378.05 31.8125C378.354 31.1979 378.772 30.724 379.304 30.3906C379.835 30.0573 380.442 29.8906 381.124 29.8906C381.528 29.8906 381.907 29.9492 382.261 30.0664C382.618 30.1836 382.939 30.3555 383.226 30.582C383.512 30.806 383.752 31.0794 383.944 31.4023C384.137 31.7227 384.27 32.0885 384.343 32.5ZM388.221 38.125C387.679 38.125 387.204 37.9961 386.795 37.7383C386.389 37.4805 386.071 37.1198 385.842 36.6562C385.615 36.1927 385.502 35.651 385.502 35.0312C385.502 34.4062 385.615 33.8607 385.842 33.3945C386.071 32.9284 386.389 32.5664 386.795 32.3086C387.204 32.0508 387.679 31.9219 388.221 31.9219C388.762 31.9219 389.236 32.0508 389.643 32.3086C390.051 32.5664 390.369 32.9284 390.596 33.3945C390.825 33.8607 390.939 34.4062 390.939 35.0312C390.939 35.651 390.825 36.1927 390.596 36.6562C390.369 37.1198 390.051 37.4805 389.643 37.7383C389.236 37.9961 388.762 38.125 388.221 38.125ZM388.221 37.2969C388.632 37.2969 388.971 37.1914 389.236 36.9805C389.502 36.7695 389.699 36.4922 389.826 36.1484C389.954 35.8047 390.018 35.4323 390.018 35.0312C390.018 34.6302 389.954 34.2565 389.826 33.9102C389.699 33.5638 389.502 33.2839 389.236 33.0703C388.971 32.8568 388.632 32.75 388.221 32.75C387.809 32.75 387.471 32.8568 387.205 33.0703C386.939 33.2839 386.743 33.5638 386.615 33.9102C386.488 34.2565 386.424 34.6302 386.424 35.0312C386.424 35.4323 386.488 35.8047 386.615 36.1484C386.743 36.4922 386.939 36.7695 387.205 36.9805C387.471 37.1914 387.809 37.2969 388.221 37.2969ZM393.269 30V38H392.347V30H393.269ZM397.395 38.125C396.853 38.125 396.378 37.9961 395.969 37.7383C395.563 37.4805 395.245 37.1198 395.016 36.6562C394.789 36.1927 394.676 35.651 394.676 35.0312C394.676 34.4062 394.789 33.8607 395.016 33.3945C395.245 32.9284 395.563 32.5664 395.969 32.3086C396.378 32.0508 396.853 31.9219 397.395 31.9219C397.936 31.9219 398.41 32.0508 398.816 32.3086C399.225 32.5664 399.543 32.9284 399.77 33.3945C399.999 33.8607 400.113 34.4062 400.113 35.0312C400.113 35.651 399.999 36.1927 399.77 36.6562C399.543 37.1198 399.225 37.4805 398.816 37.7383C398.41 37.9961 397.936 38.125 397.395 38.125ZM397.395 37.2969C397.806 37.2969 398.145 37.1914 398.41 36.9805C398.676 36.7695 398.872 36.4922 399 36.1484C399.128 35.8047 399.191 35.4323 399.191 35.0312C399.191 34.6302 399.128 34.2565 399 33.9102C398.872 33.5638 398.676 33.2839 398.41 33.0703C398.145 32.8568 397.806 32.75 397.395 32.75C396.983 32.75 396.645 32.8568 396.379 33.0703C396.113 33.2839 395.917 33.5638 395.789 33.9102C395.661 34.2565 395.598 34.6302 395.598 35.0312C395.598 35.4323 395.661 35.8047 395.789 36.1484C395.917 36.4922 396.113 36.7695 396.379 36.9805C396.645 37.1914 396.983 37.2969 397.395 37.2969ZM401.521 38V32H402.411V32.9062H402.474C402.583 32.6094 402.781 32.3685 403.067 32.1836C403.354 31.9987 403.677 31.9062 404.036 31.9062C404.104 31.9062 404.188 31.9076 404.29 31.9102C404.392 31.9128 404.468 31.9167 404.521 31.9219V32.8594C404.489 32.8516 404.418 32.8398 404.306 32.8242C404.196 32.806 404.08 32.7969 403.958 32.7969C403.666 32.7969 403.406 32.8581 403.177 32.9805C402.95 33.1003 402.771 33.2669 402.638 33.4805C402.507 33.6914 402.442 33.9323 402.442 34.2031V38H401.521Z" fill="black"/>
<path d="M40.7536 101.727V109H39.2159V103.187H39.1733L37.5078 104.231V102.867L39.3082 101.727H40.7536ZM45.6461 101.727V109H44.1085V103.187H44.0659L42.4004 104.231V102.867L44.2008 101.727H45.6461ZM47.3746 109V107.892L49.9634 105.495C50.1836 105.282 50.3683 105.09 50.5174 104.92C50.6689 104.749 50.7837 104.582 50.8619 104.419C50.94 104.253 50.979 104.075 50.979 103.883C50.979 103.67 50.9305 103.486 50.8335 103.332C50.7364 103.176 50.6038 103.057 50.4357 102.974C50.2676 102.888 50.0771 102.846 49.864 102.846C49.6415 102.846 49.4473 102.891 49.2816 102.981C49.1159 103.071 48.988 103.2 48.8981 103.368C48.8081 103.536 48.7631 103.736 48.7631 103.968H47.3036C47.3036 103.492 47.4113 103.079 47.6268 102.729C47.8422 102.378 48.1441 102.107 48.5323 101.915C48.9206 101.724 49.368 101.628 49.8746 101.628C50.3955 101.628 50.8488 101.72 51.2347 101.905C51.623 102.087 51.9248 102.34 52.1403 102.665C52.3557 102.989 52.4634 103.361 52.4634 103.78C52.4634 104.054 52.409 104.326 52.3001 104.593C52.1935 104.861 52.003 105.158 51.7283 105.484C51.4537 105.809 51.0666 106.198 50.5671 106.653L49.5053 107.693V107.743H52.5593V109H47.3746ZM53.7161 109V101.727H58.6167V102.995H55.2537V104.728H58.3645V105.996H55.2537V107.732H58.6309V109H53.7161ZM62.4528 109.099C61.9509 109.099 61.5034 109.007 61.1104 108.822C60.7198 108.638 60.4097 108.383 60.18 108.059C59.9504 107.735 59.8308 107.363 59.8214 106.944H61.3129C61.3294 107.226 61.4478 107.454 61.668 107.629C61.8881 107.804 62.1497 107.892 62.4528 107.892C62.6942 107.892 62.9073 107.839 63.092 107.732C63.279 107.623 63.4246 107.473 63.5288 107.281C63.6353 107.087 63.6886 106.865 63.6886 106.614C63.6886 106.358 63.6341 106.133 63.5252 105.939C63.4187 105.745 63.2707 105.593 63.0813 105.484C62.8919 105.375 62.6753 105.32 62.4315 105.317C62.2184 105.317 62.0112 105.361 61.81 105.449C61.6112 105.536 61.4561 105.656 61.3448 105.808L59.9776 105.562L60.3221 101.727H64.7681V102.984H61.5898L61.4016 104.806H61.4442C61.5721 104.626 61.765 104.477 62.0231 104.359C62.2811 104.24 62.57 104.181 62.8896 104.181C63.3275 104.181 63.7182 104.284 64.0614 104.49C64.4047 104.696 64.6758 104.979 64.8746 105.339C65.0735 105.696 65.1718 106.108 65.1694 106.575C65.1718 107.065 65.0581 107.5 64.8285 107.881C64.6012 108.26 64.2828 108.558 63.8732 108.776C63.466 108.992 62.9925 109.099 62.4528 109.099ZM68.9549 109.099C68.408 109.099 67.9215 109.011 67.4954 108.833C67.0716 108.653 66.739 108.408 66.4975 108.098C66.256 107.788 66.1353 107.436 66.1353 107.043C66.1353 106.74 66.204 106.462 66.3413 106.209C66.4809 105.953 66.6703 105.741 66.9094 105.573C67.1486 105.403 67.4161 105.294 67.712 105.246V105.197C67.3237 105.119 67.0089 104.93 66.7674 104.632C66.5259 104.331 66.4052 103.982 66.4052 103.585C66.4052 103.208 66.5153 102.873 66.7354 102.58C66.9556 102.284 67.2575 102.052 67.641 101.884C68.0269 101.713 68.4648 101.628 68.9549 101.628C69.445 101.628 69.8817 101.713 70.2653 101.884C70.6512 102.054 70.9542 102.287 71.1744 102.583C71.3945 102.877 71.5058 103.21 71.5082 103.585C71.5058 103.985 71.3827 104.334 71.1388 104.632C70.895 104.93 70.5825 105.119 70.2013 105.197V105.246C70.4925 105.294 70.7565 105.403 70.9933 105.573C71.2324 105.741 71.4218 105.953 71.5614 106.209C71.7035 106.462 71.7757 106.74 71.7781 107.043C71.7757 107.436 71.6538 107.788 71.4123 108.098C71.1708 108.408 70.837 108.653 70.4109 108.833C69.9871 109.011 69.5018 109.099 68.9549 109.099ZM68.9549 107.97C69.1987 107.97 69.4118 107.926 69.5941 107.839C69.7764 107.749 69.9184 107.626 70.0202 107.469C70.1244 107.311 70.1765 107.129 70.1765 106.923C70.1765 106.712 70.1232 106.526 70.0167 106.365C69.9102 106.202 69.7657 106.074 69.5835 105.982C69.4012 105.887 69.1916 105.839 68.9549 105.839C68.7205 105.839 68.511 105.887 68.3263 105.982C68.1417 106.074 67.9961 106.202 67.8896 106.365C67.7854 106.526 67.7333 106.712 67.7333 106.923C67.7333 107.129 67.7842 107.311 67.886 107.469C67.9878 107.626 68.131 107.749 68.3157 107.839C68.5004 107.926 68.7134 107.97 68.9549 107.97ZM68.9549 104.721C69.1585 104.721 69.3396 104.679 69.4982 104.597C69.6568 104.514 69.7811 104.399 69.8711 104.252C69.9611 104.105 70.006 103.936 70.006 103.744C70.006 103.555 69.9611 103.389 69.8711 103.247C69.7811 103.103 69.658 102.99 69.5018 102.91C69.3455 102.827 69.1632 102.786 68.9549 102.786C68.7489 102.786 68.5666 102.827 68.408 102.91C68.2494 102.99 68.1251 103.103 68.0352 103.247C67.9476 103.389 67.9038 103.555 67.9038 103.744C67.9038 103.936 67.9487 104.105 68.0387 104.252C68.1287 104.399 68.253 104.514 68.4116 104.597C68.5702 104.679 68.7513 104.721 68.9549 104.721Z" fill="#1E1E1E"/>
<path d="M34.3807 42.0994C34.0066 42.0971 33.6456 42.0343 33.2976 41.9112C32.9519 41.7881 32.6418 41.5881 32.3672 41.3111C32.0926 41.0341 31.8748 40.6671 31.7138 40.2102C31.5552 39.7533 31.4759 39.1922 31.4759 38.527C31.4782 37.9162 31.5481 37.3705 31.6854 36.8899C31.825 36.407 32.0239 35.9974 32.282 35.6612C32.5424 35.325 32.8537 35.0694 33.2159 34.8942C33.5781 34.7166 33.9841 34.6278 34.4339 34.6278C34.9193 34.6278 35.3478 34.7225 35.7195 34.9119C36.0911 35.099 36.3894 35.3535 36.6143 35.6754C36.8416 35.9974 36.9789 36.3584 37.0263 36.7585H35.5099C35.4508 36.5052 35.3265 36.3063 35.1371 36.1619C34.9477 36.0175 34.7133 35.9453 34.4339 35.9453C33.9605 35.9453 33.6006 36.1513 33.3544 36.5632C33.1106 36.9751 32.9863 37.535 32.9815 38.2429H33.0312C33.1402 38.0275 33.2869 37.844 33.4716 37.6925C33.6586 37.5386 33.8705 37.4214 34.1072 37.3409C34.3464 37.258 34.5985 37.2166 34.8636 37.2166C35.2945 37.2166 35.678 37.3184 36.0142 37.522C36.3504 37.7232 36.6155 38.0002 36.8097 38.353C37.0038 38.7057 37.1009 39.1094 37.1009 39.5639C37.1009 40.0563 36.986 40.4943 36.7564 40.8778C36.5291 41.2614 36.2107 41.562 35.8011 41.7798C35.3939 41.9953 34.9205 42.1018 34.3807 42.0994ZM34.3736 40.892C34.6103 40.892 34.8222 40.8352 35.0092 40.7216C35.1963 40.608 35.343 40.4541 35.4496 40.2599C35.5561 40.0658 35.6094 39.848 35.6094 39.6065C35.6094 39.3651 35.5561 39.1484 35.4496 38.9567C35.3454 38.7649 35.201 38.6122 35.0163 38.4986C34.8317 38.3849 34.621 38.3281 34.3842 38.3281C34.2067 38.3281 34.0421 38.3613 33.8906 38.4276C33.7415 38.4938 33.6101 38.5862 33.4964 38.7045C33.3852 38.8229 33.2976 38.9602 33.2337 39.1165C33.1697 39.2704 33.1378 39.4349 33.1378 39.6101C33.1378 39.8445 33.1911 40.0587 33.2976 40.2528C33.4065 40.447 33.5533 40.602 33.7379 40.718C33.925 40.834 34.1368 40.892 34.3736 40.892ZM38.2337 42V34.7273H43.049V35.995H39.7713V37.728H42.7294V38.9957H39.7713V42H38.2337ZM50.5002 37.2734H48.9448C48.9164 37.0722 48.8584 36.8935 48.7708 36.7372C48.6832 36.5786 48.5707 36.4437 48.4334 36.3324C48.2961 36.2211 48.1375 36.1359 47.9576 36.0767C47.78 36.0175 47.5871 35.9879 47.3787 35.9879C47.0023 35.9879 46.6744 36.0814 46.3951 36.2685C46.1157 36.4531 45.8991 36.723 45.7452 37.0781C45.5913 37.4309 45.5144 37.8594 45.5144 38.3636C45.5144 38.8821 45.5913 39.3177 45.7452 39.6705C45.9015 40.0232 46.1193 40.2895 46.3986 40.4695C46.678 40.6494 47.0011 40.7393 47.3681 40.7393C47.574 40.7393 47.7646 40.7121 47.9398 40.6577C48.1174 40.6032 48.2748 40.5239 48.4121 40.4197C48.5494 40.3132 48.6631 40.1842 48.753 40.0327C48.8453 39.8812 48.9093 39.7083 48.9448 39.5142L50.5002 39.5213C50.4599 39.8551 50.3593 40.1771 50.1983 40.4872C50.0397 40.795 49.8255 41.0708 49.5556 41.3146C49.2881 41.5561 48.9685 41.7479 48.5968 41.8899C48.2275 42.0296 47.8096 42.0994 47.3432 42.0994C46.6945 42.0994 46.1145 41.9527 45.6032 41.6591C45.0942 41.3655 44.6917 40.9406 44.3958 40.3842C44.1022 39.8279 43.9554 39.1544 43.9554 38.3636C43.9554 37.5705 44.1046 36.8958 44.4029 36.3395C44.7012 35.7831 45.106 35.3594 45.6174 35.0682C46.1287 34.7746 46.704 34.6278 47.3432 34.6278C47.7646 34.6278 48.1552 34.687 48.5151 34.8054C48.8773 34.9238 49.1981 35.0966 49.4775 35.3239C49.7568 35.5488 49.9841 35.8246 50.1593 36.1513C50.3368 36.478 50.4505 36.852 50.5002 37.2734ZM52.7196 42H51.0719L53.5826 34.7273H55.5641L58.0712 42H56.4235L54.6017 36.3892H54.5449L52.7196 42ZM52.6167 39.1413H56.5087V40.3416H52.6167V39.1413ZM58.7939 40.7216V39.5107L61.8301 34.7273H62.8741V36.4034H62.2562L60.3422 39.4325V39.4893H64.6568V40.7216H58.7939ZM62.2846 42V40.3523L62.313 39.8161V34.7273H63.7548V42H62.2846ZM65.7239 42V34.7273H68.6358C69.1709 34.7273 69.6171 34.8066 69.9746 34.9652C70.3321 35.1238 70.6008 35.344 70.7807 35.6257C70.9606 35.9051 71.0506 36.227 71.0506 36.5916C71.0506 36.8757 70.9938 37.1255 70.8801 37.3409C70.7665 37.554 70.6103 37.7292 70.4114 37.8665C70.2149 38.0014 69.99 38.0973 69.7367 38.1541V38.2251C70.0137 38.237 70.2729 38.3151 70.5144 38.4595C70.7582 38.6039 70.9559 38.8063 71.1074 39.0668C71.2589 39.3248 71.3347 39.6326 71.3347 39.9901C71.3347 40.3759 71.2388 40.7204 71.0471 41.0234C70.8577 41.3241 70.5771 41.562 70.2054 41.7372C69.8337 41.9124 69.3757 42 68.8311 42H65.7239ZM67.2615 40.7429H68.5151C68.9436 40.7429 69.2561 40.6612 69.4526 40.4979C69.6491 40.3321 69.7473 40.112 69.7473 39.8374C69.7473 39.6361 69.6988 39.4586 69.6017 39.3047C69.5047 39.1508 69.3662 39.0301 69.1863 38.9425C69.0087 38.8549 68.7968 38.8111 68.5506 38.8111H67.2615V40.7429ZM67.2615 37.7706H68.4015C68.6122 37.7706 68.7992 37.7339 68.9625 37.6605C69.1283 37.5848 69.2585 37.4782 69.3532 37.3409C69.4502 37.2036 69.4988 37.0391 69.4988 36.8473C69.4988 36.5845 69.4052 36.3726 69.2182 36.2116C69.0336 36.0507 68.7708 35.9702 68.4299 35.9702H67.2615V37.7706Z" fill="#1E1E1E"/>
<path d="M339.344 100C339.297 99.6042 339.107 99.2969 338.773 99.0781C338.44 98.8594 338.031 98.75 337.547 98.75C337.193 98.75 336.883 98.8073 336.617 98.9219C336.354 99.0365 336.148 99.194 336 99.3945C335.854 99.5951 335.781 99.8229 335.781 100.078C335.781 100.292 335.832 100.475 335.934 100.629C336.038 100.78 336.171 100.906 336.332 101.008C336.493 101.107 336.663 101.189 336.84 101.254C337.017 101.316 337.18 101.367 337.328 101.406L338.141 101.625C338.349 101.68 338.581 101.755 338.836 101.852C339.094 101.948 339.34 102.079 339.574 102.246C339.811 102.41 340.007 102.621 340.16 102.879C340.314 103.137 340.391 103.453 340.391 103.828C340.391 104.26 340.277 104.651 340.051 105C339.827 105.349 339.499 105.626 339.066 105.832C338.637 106.038 338.115 106.141 337.5 106.141C336.927 106.141 336.431 106.048 336.012 105.863C335.595 105.678 335.267 105.421 335.027 105.09C334.79 104.759 334.656 104.375 334.625 103.938H335.625C335.651 104.24 335.753 104.49 335.93 104.687C336.109 104.883 336.336 105.029 336.609 105.125C336.885 105.219 337.182 105.266 337.5 105.266C337.87 105.266 338.202 105.206 338.496 105.086C338.79 104.964 339.023 104.794 339.195 104.578C339.367 104.359 339.453 104.104 339.453 103.812C339.453 103.547 339.379 103.331 339.23 103.164C339.082 102.997 338.887 102.862 338.645 102.758C338.402 102.654 338.141 102.562 337.859 102.484L336.875 102.203C336.25 102.023 335.755 101.767 335.391 101.434C335.026 101.1 334.844 100.664 334.844 100.125C334.844 99.6771 334.965 99.2865 335.207 98.9531C335.452 98.6172 335.78 98.3568 336.191 98.1719C336.605 97.9844 337.068 97.8906 337.578 97.8906C338.094 97.8906 338.552 97.9831 338.953 98.168C339.354 98.3503 339.672 98.6003 339.906 98.918C340.143 99.2357 340.268 99.5964 340.281 100H339.344ZM344.374 106.125C343.796 106.125 343.297 105.997 342.878 105.742C342.461 105.484 342.14 105.125 341.913 104.664C341.689 104.201 341.577 103.661 341.577 103.047C341.577 102.432 341.689 101.891 341.913 101.422C342.14 100.951 342.455 100.583 342.858 100.32C343.265 100.055 343.739 99.9219 344.28 99.9219C344.593 99.9219 344.901 99.974 345.206 100.078C345.511 100.182 345.788 100.352 346.038 100.586C346.288 100.818 346.487 101.125 346.636 101.508C346.784 101.891 346.858 102.362 346.858 102.922V103.312H342.233V102.516H345.921C345.921 102.177 345.853 101.875 345.718 101.609C345.585 101.344 345.395 101.134 345.147 100.98C344.903 100.827 344.614 100.75 344.28 100.75C343.913 100.75 343.595 100.841 343.327 101.023C343.062 101.203 342.857 101.437 342.714 101.727C342.571 102.016 342.499 102.326 342.499 102.656V103.188C342.499 103.641 342.577 104.025 342.733 104.34C342.892 104.652 343.112 104.891 343.394 105.055C343.675 105.216 344.002 105.297 344.374 105.297C344.616 105.297 344.835 105.263 345.03 105.195C345.228 105.125 345.399 105.021 345.542 104.883C345.685 104.742 345.796 104.568 345.874 104.359L346.765 104.609C346.671 104.911 346.513 105.177 346.292 105.406C346.071 105.633 345.797 105.81 345.472 105.937C345.146 106.063 344.78 106.125 344.374 106.125ZM350.698 106.125C350.136 106.125 349.651 105.992 349.245 105.727C348.839 105.461 348.526 105.095 348.308 104.629C348.089 104.163 347.979 103.63 347.979 103.031C347.979 102.422 348.091 101.884 348.315 101.418C348.542 100.949 348.857 100.583 349.261 100.32C349.667 100.055 350.141 99.9219 350.683 99.9219C351.104 99.9219 351.485 100 351.823 100.156C352.162 100.312 352.439 100.531 352.655 100.812C352.871 101.094 353.006 101.422 353.058 101.797H352.136C352.065 101.523 351.909 101.281 351.667 101.07C351.427 100.857 351.104 100.75 350.698 100.75C350.339 100.75 350.024 100.844 349.753 101.031C349.485 101.216 349.275 101.478 349.124 101.816C348.976 102.152 348.901 102.547 348.901 103C348.901 103.464 348.974 103.867 349.12 104.211C349.269 104.555 349.477 104.822 349.745 105.012C350.016 105.202 350.334 105.297 350.698 105.297C350.938 105.297 351.155 105.255 351.351 105.172C351.546 105.089 351.711 104.969 351.847 104.812C351.982 104.656 352.078 104.469 352.136 104.25H353.058C353.006 104.604 352.877 104.923 352.671 105.207C352.468 105.488 352.198 105.712 351.862 105.879C351.529 106.043 351.141 106.125 350.698 106.125ZM356.843 106.125C356.301 106.125 355.826 105.996 355.417 105.738C355.011 105.48 354.693 105.12 354.464 104.656C354.237 104.193 354.124 103.651 354.124 103.031C354.124 102.406 354.237 101.861 354.464 101.395C354.693 100.928 355.011 100.566 355.417 100.309C355.826 100.051 356.301 99.9219 356.843 99.9219C357.384 99.9219 357.858 100.051 358.265 100.309C358.674 100.566 358.991 100.928 359.218 101.395C359.447 101.861 359.562 102.406 359.562 103.031C359.562 103.651 359.447 104.193 359.218 104.656C358.991 105.12 358.674 105.48 358.265 105.738C357.858 105.996 357.384 106.125 356.843 106.125ZM356.843 105.297C357.254 105.297 357.593 105.191 357.858 104.98C358.124 104.77 358.321 104.492 358.448 104.148C358.576 103.805 358.64 103.432 358.64 103.031C358.64 102.63 358.576 102.257 358.448 101.91C358.321 101.564 358.124 101.284 357.858 101.07C357.593 100.857 357.254 100.75 356.843 100.75C356.431 100.75 356.093 100.857 355.827 101.07C355.562 101.284 355.365 101.564 355.237 101.91C355.11 102.257 355.046 102.63 355.046 103.031C355.046 103.432 355.11 103.805 355.237 104.148C355.365 104.492 355.562 104.77 355.827 104.98C356.093 105.191 356.431 105.297 356.843 105.297ZM361.891 102.391V106H360.969V100H361.859V100.937H361.938C362.078 100.633 362.292 100.388 362.578 100.203C362.865 100.016 363.234 99.9219 363.688 99.9219C364.094 99.9219 364.449 100.005 364.754 100.172C365.059 100.336 365.296 100.586 365.465 100.922C365.634 101.255 365.719 101.677 365.719 102.188V106H364.797V102.25C364.797 101.779 364.674 101.411 364.43 101.148C364.185 100.883 363.849 100.75 363.422 100.75C363.128 100.75 362.865 100.814 362.633 100.941C362.404 101.069 362.223 101.255 362.09 101.5C361.957 101.745 361.891 102.042 361.891 102.391ZM369.669 106.125C369.169 106.125 368.728 105.999 368.345 105.746C367.962 105.491 367.662 105.132 367.446 104.668C367.23 104.202 367.122 103.651 367.122 103.016C367.122 102.385 367.23 101.839 367.446 101.375C367.662 100.911 367.963 100.553 368.349 100.301C368.734 100.048 369.179 99.9219 369.685 99.9219C370.075 99.9219 370.384 99.987 370.61 100.117C370.84 100.245 371.014 100.391 371.134 100.555C371.256 100.716 371.351 100.849 371.419 100.953H371.497V98H372.419V106H371.528V105.078H371.419C371.351 105.187 371.255 105.326 371.13 105.492C371.005 105.656 370.826 105.803 370.595 105.934C370.363 106.061 370.054 106.125 369.669 106.125ZM369.794 105.297C370.164 105.297 370.476 105.201 370.731 105.008C370.987 104.812 371.181 104.543 371.313 104.199C371.446 103.853 371.513 103.453 371.513 103C371.513 102.552 371.448 102.16 371.317 101.824C371.187 101.486 370.994 101.223 370.739 101.035C370.484 100.845 370.169 100.75 369.794 100.75C369.403 100.75 369.078 100.85 368.817 101.051C368.56 101.249 368.366 101.518 368.235 101.859C368.108 102.198 368.044 102.578 368.044 103C368.044 103.427 368.109 103.815 368.239 104.164C368.372 104.51 368.567 104.786 368.825 104.992C369.086 105.195 369.409 105.297 369.794 105.297ZM376.001 106.141C375.621 106.141 375.276 106.069 374.966 105.926C374.656 105.78 374.41 105.57 374.228 105.297C374.045 105.021 373.954 104.687 373.954 104.297C373.954 103.953 374.022 103.674 374.157 103.461C374.293 103.245 374.474 103.076 374.7 102.953C374.927 102.831 375.177 102.74 375.45 102.68C375.726 102.617 376.004 102.568 376.282 102.531C376.647 102.484 376.942 102.449 377.169 102.426C377.398 102.4 377.565 102.357 377.669 102.297C377.776 102.237 377.829 102.133 377.829 101.984V101.953C377.829 101.568 377.724 101.268 377.513 101.055C377.304 100.841 376.988 100.734 376.563 100.734C376.123 100.734 375.778 100.831 375.528 101.023C375.278 101.216 375.103 101.422 375.001 101.641L374.126 101.328C374.282 100.964 374.491 100.68 374.751 100.477C375.014 100.271 375.3 100.128 375.61 100.047C375.923 99.9635 376.23 99.9219 376.532 99.9219C376.725 99.9219 376.946 99.9453 377.196 99.9922C377.449 100.036 377.692 100.129 377.927 100.27C378.164 100.41 378.36 100.622 378.517 100.906C378.673 101.19 378.751 101.57 378.751 102.047V106H377.829V105.187H377.782C377.72 105.318 377.616 105.457 377.47 105.605C377.324 105.754 377.13 105.88 376.888 105.984C376.646 106.089 376.35 106.141 376.001 106.141ZM376.142 105.312C376.506 105.312 376.813 105.241 377.063 105.098C377.316 104.954 377.506 104.77 377.634 104.543C377.764 104.316 377.829 104.078 377.829 103.828V102.984C377.79 103.031 377.704 103.074 377.571 103.113C377.441 103.15 377.29 103.182 377.118 103.211C376.949 103.237 376.784 103.26 376.622 103.281C376.463 103.299 376.334 103.315 376.235 103.328C375.996 103.359 375.772 103.41 375.563 103.48C375.358 103.548 375.191 103.651 375.063 103.789C374.938 103.924 374.876 104.109 374.876 104.344C374.876 104.664 374.994 104.906 375.231 105.07C375.471 105.232 375.774 105.312 376.142 105.312ZM380.434 106V100H381.324V100.906H381.387C381.496 100.609 381.694 100.368 381.98 100.184C382.267 99.9987 382.59 99.9062 382.949 99.9062C383.017 99.9062 383.102 99.9076 383.203 99.9102C383.305 99.9128 383.382 99.9167 383.434 99.9219V100.859C383.402 100.852 383.331 100.84 383.219 100.824C383.109 100.806 382.993 100.797 382.871 100.797C382.579 100.797 382.319 100.858 382.09 100.98C381.863 101.1 381.684 101.267 381.551 101.48C381.421 101.691 381.355 101.932 381.355 102.203V106H380.434ZM385.303 108.25C385.146 108.25 385.007 108.237 384.885 108.211C384.762 108.188 384.678 108.164 384.631 108.141L384.865 107.328C385.089 107.385 385.287 107.406 385.459 107.391C385.631 107.375 385.783 107.298 385.916 107.16C386.051 107.025 386.175 106.805 386.287 106.5L386.459 106.031L384.24 100H385.24L386.896 104.781H386.959L388.615 100H389.615L387.068 106.875C386.954 107.185 386.812 107.441 386.643 107.645C386.473 107.85 386.277 108.003 386.053 108.102C385.831 108.201 385.581 108.25 385.303 108.25ZM400.488 100.5H399.52C399.462 100.221 399.362 99.9766 399.219 99.7656C399.078 99.5547 398.906 99.3776 398.703 99.2344C398.503 99.0885 398.28 98.9792 398.035 98.9062C397.79 98.8333 397.535 98.7969 397.27 98.7969C396.785 98.7969 396.346 98.9193 395.953 99.1641C395.563 99.4089 395.251 99.7695 395.02 100.246C394.79 100.723 394.676 101.307 394.676 102C394.676 102.693 394.79 103.277 395.02 103.754C395.251 104.23 395.563 104.591 395.953 104.836C396.346 105.081 396.785 105.203 397.27 105.203C397.535 105.203 397.79 105.167 398.035 105.094C398.28 105.021 398.503 104.913 398.703 104.77C398.906 104.624 399.078 104.445 399.219 104.234C399.362 104.021 399.462 103.776 399.52 103.5H400.488C400.415 103.909 400.283 104.275 400.09 104.598C399.897 104.921 399.658 105.195 399.371 105.422C399.085 105.646 398.763 105.816 398.406 105.934C398.052 106.051 397.673 106.109 397.27 106.109C396.587 106.109 395.98 105.943 395.449 105.609C394.918 105.276 394.5 104.802 394.195 104.187C393.891 103.573 393.738 102.844 393.738 102C393.738 101.156 393.891 100.427 394.195 99.8125C394.5 99.1979 394.918 98.724 395.449 98.3906C395.98 98.0573 396.587 97.8906 397.27 97.8906C397.673 97.8906 398.052 97.9492 398.406 98.0664C398.763 98.1836 399.085 98.3555 399.371 98.582C399.658 98.806 399.897 99.0794 400.09 99.4023C400.283 99.7227 400.415 100.089 400.488 100.5ZM404.366 106.125C403.825 106.125 403.349 105.996 402.94 105.738C402.534 105.48 402.216 105.12 401.987 104.656C401.761 104.193 401.647 103.651 401.647 103.031C401.647 102.406 401.761 101.861 401.987 101.395C402.216 100.928 402.534 100.566 402.94 100.309C403.349 100.051 403.825 99.9219 404.366 99.9219C404.908 99.9219 405.382 100.051 405.788 100.309C406.197 100.566 406.515 100.928 406.741 101.395C406.97 101.861 407.085 102.406 407.085 103.031C407.085 103.651 406.97 104.193 406.741 104.656C406.515 105.12 406.197 105.48 405.788 105.738C405.382 105.996 404.908 106.125 404.366 106.125ZM404.366 105.297C404.778 105.297 405.116 105.191 405.382 104.98C405.647 104.77 405.844 104.492 405.972 104.148C406.099 103.805 406.163 103.432 406.163 103.031C406.163 102.63 406.099 102.257 405.972 101.91C405.844 101.564 405.647 101.284 405.382 101.07C405.116 100.857 404.778 100.75 404.366 100.75C403.955 100.75 403.616 100.857 403.351 101.07C403.085 101.284 402.888 101.564 402.761 101.91C402.633 102.257 402.569 102.63 402.569 103.031C402.569 103.432 402.633 103.805 402.761 104.148C402.888 104.492 403.085 104.77 403.351 104.98C403.616 105.191 403.955 105.297 404.366 105.297ZM409.414 98V106H408.492V98H409.414ZM413.54 106.125C412.998 106.125 412.523 105.996 412.114 105.738C411.708 105.48 411.39 105.12 411.161 104.656C410.935 104.193 410.821 103.651 410.821 103.031C410.821 102.406 410.935 101.861 411.161 101.395C411.39 100.928 411.708 100.566 412.114 100.309C412.523 100.051 412.998 99.9219 413.54 99.9219C414.082 99.9219 414.556 100.051 414.962 100.309C415.371 100.566 415.688 100.928 415.915 101.395C416.144 101.861 416.259 102.406 416.259 103.031C416.259 103.651 416.144 104.193 415.915 104.656C415.688 105.12 415.371 105.48 414.962 105.738C414.556 105.996 414.082 106.125 413.54 106.125ZM413.54 105.297C413.951 105.297 414.29 105.191 414.556 104.98C414.821 104.77 415.018 104.492 415.146 104.148C415.273 103.805 415.337 103.432 415.337 103.031C415.337 102.63 415.273 102.257 415.146 101.91C415.018 101.564 414.821 101.284 414.556 101.07C414.29 100.857 413.951 100.75 413.54 100.75C413.129 100.75 412.79 100.857 412.524 101.07C412.259 101.284 412.062 101.564 411.935 101.91C411.807 102.257 411.743 102.63 411.743 103.031C411.743 103.432 411.807 103.805 411.935 104.148C412.062 104.492 412.259 104.77 412.524 104.98C412.79 105.191 413.129 105.297 413.54 105.297ZM417.666 106V100H418.557V100.906H418.619C418.729 100.609 418.926 100.368 419.213 100.184C419.499 99.9987 419.822 99.9062 420.182 99.9062C420.249 99.9062 420.334 99.9076 420.436 99.9102C420.537 99.9128 420.614 99.9167 420.666 99.9219V100.859C420.635 100.852 420.563 100.84 420.451 100.824C420.342 100.806 420.226 100.797 420.104 100.797C419.812 100.797 419.551 100.858 419.322 100.98C419.096 101.1 418.916 101.267 418.783 101.48C418.653 101.691 418.588 101.932 418.588 102.203V106H417.666Z" fill="black"/>
<rect x="24.5" y="154.5" width="259" height="54" fill="white" stroke="black"/>
<rect x="24" y="233" width="260" height="55" fill="#E4CF10"/>
<path d="M334.58 179.21V178.273H341.125V179.21H338.381V187H337.324V179.21H334.58ZM344.415 187.136C343.784 187.136 343.24 186.997 342.783 186.719C342.328 186.438 341.977 186.045 341.73 185.543C341.486 185.037 341.364 184.449 341.364 183.778C341.364 183.108 341.486 182.517 341.73 182.006C341.977 181.491 342.321 181.091 342.761 180.804C343.205 180.514 343.722 180.369 344.312 180.369C344.653 180.369 344.99 180.426 345.322 180.54C345.655 180.653 345.957 180.838 346.23 181.094C346.503 181.347 346.72 181.682 346.882 182.099C347.044 182.517 347.125 183.031 347.125 183.642V184.068H342.08V183.199H346.102C346.102 182.83 346.028 182.5 345.881 182.21C345.736 181.92 345.528 181.692 345.259 181.524C344.991 181.357 344.676 181.273 344.312 181.273C343.912 181.273 343.565 181.372 343.273 181.571C342.983 181.767 342.76 182.023 342.604 182.338C342.447 182.653 342.369 182.991 342.369 183.352V183.932C342.369 184.426 342.455 184.845 342.625 185.189C342.798 185.53 343.038 185.79 343.345 185.969C343.652 186.145 344.009 186.233 344.415 186.233C344.679 186.233 344.918 186.196 345.131 186.122C345.347 186.045 345.533 185.932 345.689 185.781C345.845 185.628 345.966 185.437 346.051 185.21L347.023 185.483C346.92 185.812 346.749 186.102 346.507 186.352C346.266 186.599 345.967 186.793 345.612 186.932C345.257 187.068 344.858 187.136 344.415 187.136ZM348.655 187V180.455H349.626V181.443H349.695C349.814 181.119 350.03 180.857 350.342 180.655C350.655 180.453 351.007 180.352 351.399 180.352C351.473 180.352 351.565 180.354 351.676 180.357C351.787 180.359 351.871 180.364 351.928 180.369V181.392C351.893 181.384 351.815 181.371 351.693 181.354C351.574 181.334 351.447 181.324 351.314 181.324C350.996 181.324 350.712 181.391 350.462 181.524C350.214 181.655 350.018 181.837 349.874 182.07C349.732 182.3 349.661 182.562 349.661 182.858V187H348.655ZM356.376 180.455V181.307H352.984V180.455H356.376ZM353.973 178.886H354.979V185.125C354.979 185.409 355.02 185.622 355.102 185.764C355.188 185.903 355.295 185.997 355.426 186.045C355.56 186.091 355.7 186.114 355.848 186.114C355.959 186.114 356.05 186.108 356.121 186.097C356.192 186.082 356.249 186.071 356.291 186.062L356.496 186.966C356.428 186.991 356.332 187.017 356.21 187.043C356.088 187.071 355.933 187.085 355.746 187.085C355.462 187.085 355.183 187.024 354.911 186.902C354.641 186.78 354.416 186.594 354.237 186.344C354.061 186.094 353.973 185.778 353.973 185.398V178.886ZM357.889 187V180.455H358.895V187H357.889ZM358.401 179.364C358.205 179.364 358.036 179.297 357.893 179.163C357.754 179.03 357.685 178.869 357.685 178.682C357.685 178.494 357.754 178.334 357.893 178.2C358.036 178.067 358.205 178 358.401 178C358.597 178 358.764 178.067 358.903 178.2C359.045 178.334 359.116 178.494 359.116 178.682C359.116 178.869 359.045 179.03 358.903 179.163C358.764 179.297 358.597 179.364 358.401 179.364ZM362.663 187.153C362.248 187.153 361.872 187.075 361.534 186.919C361.196 186.76 360.927 186.531 360.728 186.233C360.529 185.932 360.43 185.568 360.43 185.142C360.43 184.767 360.504 184.463 360.652 184.23C360.799 183.994 360.997 183.81 361.244 183.676C361.491 183.543 361.764 183.443 362.062 183.378C362.363 183.31 362.666 183.256 362.97 183.216C363.368 183.165 363.69 183.126 363.937 183.101C364.187 183.072 364.369 183.026 364.483 182.96C364.599 182.895 364.657 182.781 364.657 182.619V182.585C364.657 182.165 364.542 181.838 364.312 181.605C364.085 181.372 363.74 181.256 363.277 181.256C362.797 181.256 362.42 181.361 362.147 181.571C361.875 181.781 361.683 182.006 361.572 182.244L360.618 181.903C360.788 181.506 361.015 181.196 361.299 180.974C361.586 180.75 361.899 180.594 362.237 180.506C362.578 180.415 362.913 180.369 363.243 180.369C363.453 180.369 363.694 180.395 363.967 180.446C364.243 180.494 364.508 180.595 364.764 180.749C365.022 180.902 365.237 181.134 365.407 181.443C365.578 181.753 365.663 182.168 365.663 182.688V187H364.657V186.114H364.606C364.538 186.256 364.424 186.408 364.265 186.57C364.106 186.732 363.895 186.869 363.63 186.983C363.366 187.097 363.044 187.153 362.663 187.153ZM362.816 186.25C363.214 186.25 363.549 186.172 363.822 186.016C364.098 185.859 364.305 185.658 364.444 185.411C364.586 185.163 364.657 184.903 364.657 184.631V183.71C364.615 183.761 364.521 183.808 364.376 183.851C364.234 183.891 364.069 183.926 363.882 183.957C363.697 183.986 363.517 184.011 363.341 184.034C363.167 184.054 363.027 184.071 362.919 184.085C362.657 184.119 362.413 184.175 362.186 184.251C361.961 184.325 361.779 184.437 361.64 184.588C361.504 184.736 361.436 184.937 361.436 185.193C361.436 185.543 361.565 185.807 361.824 185.986C362.085 186.162 362.416 186.25 362.816 186.25ZM367.499 187V180.455H368.47V181.443H368.538C368.658 181.119 368.874 180.857 369.186 180.655C369.499 180.453 369.851 180.352 370.243 180.352C370.317 180.352 370.409 180.354 370.52 180.357C370.631 180.359 370.714 180.364 370.771 180.369V181.392C370.737 181.384 370.659 181.371 370.537 181.354C370.418 181.334 370.291 181.324 370.158 181.324C369.839 181.324 369.555 181.391 369.305 181.524C369.058 181.655 368.862 181.837 368.717 182.07C368.575 182.3 368.504 182.562 368.504 182.858V187H367.499ZM372.81 189.455C372.64 189.455 372.488 189.44 372.354 189.412C372.221 189.386 372.129 189.361 372.077 189.335L372.333 188.449C372.577 188.511 372.793 188.534 372.981 188.517C373.168 188.5 373.335 188.416 373.479 188.266C373.627 188.118 373.762 187.878 373.884 187.545L374.072 187.034L371.651 180.455H372.742L374.549 185.67H374.617L376.424 180.455H377.515L374.737 187.955C374.612 188.293 374.457 188.572 374.272 188.794C374.087 189.018 373.873 189.185 373.629 189.293C373.387 189.401 373.114 189.455 372.81 189.455ZM389.376 181H388.32C388.257 180.696 388.148 180.429 387.991 180.199C387.838 179.969 387.651 179.776 387.429 179.619C387.21 179.46 386.967 179.341 386.7 179.261C386.433 179.182 386.155 179.142 385.865 179.142C385.337 179.142 384.858 179.276 384.429 179.543C384.003 179.81 383.663 180.203 383.411 180.723C383.161 181.243 383.036 181.881 383.036 182.636C383.036 183.392 383.161 184.03 383.411 184.55C383.663 185.07 384.003 185.463 384.429 185.73C384.858 185.997 385.337 186.131 385.865 186.131C386.155 186.131 386.433 186.091 386.7 186.011C386.967 185.932 387.21 185.814 387.429 185.658C387.651 185.499 387.838 185.304 387.991 185.074C388.148 184.841 388.257 184.574 388.32 184.273H389.376C389.297 184.719 389.152 185.118 388.942 185.47C388.732 185.822 388.47 186.122 388.158 186.369C387.845 186.614 387.494 186.8 387.105 186.928C386.719 187.055 386.305 187.119 385.865 187.119C385.121 187.119 384.459 186.938 383.879 186.574C383.3 186.21 382.844 185.693 382.511 185.023C382.179 184.352 382.013 183.557 382.013 182.636C382.013 181.716 382.179 180.92 382.511 180.25C382.844 179.58 383.3 179.062 383.879 178.699C384.459 178.335 385.121 178.153 385.865 178.153C386.305 178.153 386.719 178.217 387.105 178.345C387.494 178.473 387.845 178.661 388.158 178.908C388.47 179.152 388.732 179.45 388.942 179.803C389.152 180.152 389.297 180.551 389.376 181ZM393.607 187.136C393.016 187.136 392.498 186.996 392.051 186.714C391.608 186.433 391.262 186.04 391.012 185.534C390.765 185.028 390.641 184.437 390.641 183.761C390.641 183.08 390.765 182.484 391.012 181.976C391.262 181.467 391.608 181.072 392.051 180.791C392.498 180.51 393.016 180.369 393.607 180.369C394.198 180.369 394.715 180.51 395.158 180.791C395.604 181.072 395.951 181.467 396.198 181.976C396.448 182.484 396.573 183.08 396.573 183.761C396.573 184.437 396.448 185.028 396.198 185.534C395.951 186.04 395.604 186.433 395.158 186.714C394.715 186.996 394.198 187.136 393.607 187.136ZM393.607 186.233C394.056 186.233 394.425 186.118 394.715 185.888C395.005 185.658 395.219 185.355 395.358 184.98C395.498 184.605 395.567 184.199 395.567 183.761C395.567 183.324 395.498 182.916 395.358 182.538C395.219 182.161 395.005 181.855 394.715 181.622C394.425 181.389 394.056 181.273 393.607 181.273C393.158 181.273 392.789 181.389 392.499 181.622C392.209 181.855 391.995 182.161 391.855 182.538C391.716 182.916 391.647 183.324 391.647 183.761C391.647 184.199 391.716 184.605 391.855 184.98C391.995 185.355 392.209 185.658 392.499 185.888C392.789 186.118 393.158 186.233 393.607 186.233ZM399.114 178.273V187H398.108V178.273H399.114ZM403.615 187.136C403.024 187.136 402.505 186.996 402.059 186.714C401.616 186.433 401.27 186.04 401.02 185.534C400.772 185.028 400.649 184.437 400.649 183.761C400.649 183.08 400.772 182.484 401.02 181.976C401.27 181.467 401.616 181.072 402.059 180.791C402.505 180.51 403.024 180.369 403.615 180.369C404.206 180.369 404.723 180.51 405.166 180.791C405.612 181.072 405.958 181.467 406.206 181.976C406.456 182.484 406.581 183.08 406.581 183.761C406.581 184.437 406.456 185.028 406.206 185.534C405.958 186.04 405.612 186.433 405.166 186.714C404.723 186.996 404.206 187.136 403.615 187.136ZM403.615 186.233C404.064 186.233 404.433 186.118 404.723 185.888C405.012 185.658 405.227 185.355 405.366 184.98C405.505 184.605 405.575 184.199 405.575 183.761C405.575 183.324 405.505 182.916 405.366 182.538C405.227 182.161 405.012 181.855 404.723 181.622C404.433 181.389 404.064 181.273 403.615 181.273C403.166 181.273 402.797 181.389 402.507 181.622C402.217 181.855 402.002 182.161 401.863 182.538C401.724 182.916 401.654 183.324 401.654 183.761C401.654 184.199 401.724 184.605 401.863 184.98C402.002 185.355 402.217 185.658 402.507 185.888C402.797 186.118 403.166 186.233 403.615 186.233ZM408.116 187V180.455H409.087V181.443H409.156C409.275 181.119 409.491 180.857 409.803 180.655C410.116 180.453 410.468 180.352 410.86 180.352C410.934 180.352 411.026 180.354 411.137 180.357C411.248 180.359 411.332 180.364 411.388 180.369V181.392C411.354 181.384 411.276 181.371 411.154 181.354C411.035 181.334 410.908 181.324 410.775 181.324C410.457 181.324 410.173 181.391 409.923 181.524C409.675 181.655 409.479 181.837 409.335 182.07C409.192 182.3 409.121 182.562 409.121 182.858V187H408.116Z" fill="black"/>
<path d="M34.6321 185V177.727H39.4474V178.995H36.1697V180.728H39.1278V181.996H36.1697V185H34.6321ZM40.4817 185V177.727H45.2971V178.995H42.0194V180.728H44.9775V181.996H42.0194V185H40.4817ZM46.3313 185V177.727H51.1467V178.995H47.869V180.728H50.8271V181.996H47.869V185H46.3313ZM52.1809 185V177.727H56.9963V178.995H53.7186V180.728H56.6767V181.996H53.7186V185H52.1809ZM58.0305 185V177.727H62.8459V178.995H59.5682V180.728H62.5263V181.996H59.5682V185H58.0305ZM63.8801 185V177.727H68.6955V178.995H65.4178V180.728H68.3759V181.996H65.4178V185H63.8801Z" fill="#1E1E1E"/>
<path d="M31.6321 264V256.727H36.5327V257.995H33.1697V259.728H36.2805V260.996H33.1697V262.732H36.5469V264H31.6321ZM37.6025 262.722V261.511L40.6387 256.727H41.6827V258.403H41.0648L39.1507 261.433V261.489H43.4654V262.722H37.6025ZM41.0932 264V262.352L41.1216 261.816V256.727H42.5634V264H41.0932ZM50.9494 259.273H49.394C49.3656 259.072 49.3076 258.893 49.22 258.737C49.1324 258.579 49.0199 258.444 48.8826 258.332C48.7453 258.221 48.5867 258.136 48.4068 258.077C48.2292 258.018 48.0363 257.988 47.8279 257.988C47.4515 257.988 47.1236 258.081 46.8443 258.268C46.5649 258.453 46.3483 258.723 46.1944 259.078C46.0405 259.431 45.9636 259.859 45.9636 260.364C45.9636 260.882 46.0405 261.318 46.1944 261.67C46.3507 262.023 46.5685 262.29 46.8478 262.469C47.1272 262.649 47.4503 262.739 47.8173 262.739C48.0233 262.739 48.2138 262.712 48.389 262.658C48.5666 262.603 48.724 262.524 48.8613 262.42C48.9986 262.313 49.1123 262.184 49.2022 262.033C49.2946 261.881 49.3585 261.708 49.394 261.514L50.9494 261.521C50.9092 261.855 50.8085 262.177 50.6475 262.487C50.4889 262.795 50.2747 263.071 50.0048 263.315C49.7373 263.556 49.4177 263.748 49.046 263.89C48.6767 264.03 48.2588 264.099 47.7924 264.099C47.1438 264.099 46.5637 263.953 46.0524 263.659C45.5434 263.366 45.1409 262.941 44.845 262.384C44.5514 261.828 44.4047 261.154 44.4047 260.364C44.4047 259.571 44.5538 258.896 44.8521 258.339C45.1504 257.783 45.5552 257.359 46.0666 257.068C46.5779 256.775 47.1532 256.628 47.7924 256.628C48.2138 256.628 48.6045 256.687 48.9643 256.805C49.3265 256.924 49.6473 257.097 49.9267 257.324C50.206 257.549 50.4333 257.825 50.6085 258.151C50.786 258.478 50.8997 258.852 50.9494 259.273ZM52.052 264V256.727H56.8674V257.995H53.5897V259.728H56.5478V260.996H53.5897V264H52.052ZM61.0231 256.727V264H59.4854V258.187H59.4428L57.7773 259.231V257.867L59.5778 256.727H61.0231ZM65.6032 264.16C64.9924 264.157 64.4668 264.007 64.0265 263.709C63.5885 263.411 63.2511 262.978 63.0144 262.413C62.78 261.847 62.664 261.166 62.6664 260.371C62.6664 259.578 62.7836 258.902 63.0179 258.343C63.2547 257.784 63.592 257.359 64.03 257.068C64.4703 256.775 64.9947 256.628 65.6032 256.628C66.2116 256.628 66.7348 256.775 67.1728 257.068C67.6131 257.362 67.9516 257.788 68.1884 258.347C68.4251 258.903 68.5423 259.578 68.54 260.371C68.54 261.169 68.4216 261.85 68.1848 262.416C67.9505 262.982 67.6143 263.414 67.1763 263.712C66.7383 264.011 66.214 264.16 65.6032 264.16ZM65.6032 262.885C66.0198 262.885 66.3525 262.675 66.601 262.256C66.8496 261.837 66.9727 261.209 66.9703 260.371C66.9703 259.819 66.9135 259.36 66.7999 258.993C66.6886 258.626 66.53 258.35 66.324 258.165C66.1204 257.981 65.8801 257.888 65.6032 257.888C65.1889 257.888 64.8574 258.096 64.6088 258.51C64.3603 258.924 64.2348 259.545 64.2324 260.371C64.2324 260.929 64.2881 261.396 64.3993 261.77C64.513 262.142 64.6728 262.421 64.8787 262.608C65.0847 262.793 65.3262 262.885 65.6032 262.885Z" fill="#1E1E1E"/>
<rect x="24" y="301" width="260" height="55" fill="#EEEDED"/>
<path d="M328.415 288H327.307L330.511 279.273H331.602L334.807 288H333.699L331.091 280.653H331.023L328.415 288ZM328.824 284.591H333.29V285.528H328.824V284.591ZM338.689 288.136C338.075 288.136 337.547 287.991 337.104 287.702C336.661 287.412 336.32 287.013 336.081 286.504C335.842 285.996 335.723 285.415 335.723 284.761C335.723 284.097 335.845 283.51 336.089 283.001C336.337 282.49 336.68 282.091 337.121 281.804C337.564 281.514 338.081 281.369 338.672 281.369C339.132 281.369 339.547 281.455 339.916 281.625C340.286 281.795 340.588 282.034 340.824 282.341C341.06 282.648 341.206 283.006 341.263 283.415H340.257C340.18 283.116 340.01 282.852 339.746 282.622C339.484 282.389 339.132 282.273 338.689 282.273C338.297 282.273 337.953 282.375 337.658 282.58C337.365 282.781 337.136 283.067 336.972 283.436C336.81 283.803 336.729 284.233 336.729 284.727C336.729 285.233 336.808 285.673 336.967 286.048C337.129 286.423 337.357 286.714 337.649 286.922C337.945 287.129 338.291 287.233 338.689 287.233C338.95 287.233 339.188 287.188 339.401 287.097C339.614 287.006 339.794 286.875 339.942 286.705C340.089 286.534 340.195 286.33 340.257 286.091H341.263C341.206 286.477 341.065 286.825 340.841 287.135C340.619 287.442 340.325 287.686 339.959 287.868C339.595 288.047 339.172 288.136 338.689 288.136ZM345.392 288.136C344.778 288.136 344.25 287.991 343.807 287.702C343.364 287.412 343.023 287.013 342.784 286.504C342.545 285.996 342.426 285.415 342.426 284.761C342.426 284.097 342.548 283.51 342.793 283.001C343.04 282.49 343.384 282.091 343.824 281.804C344.267 281.514 344.784 281.369 345.375 281.369C345.835 281.369 346.25 281.455 346.619 281.625C346.989 281.795 347.291 282.034 347.527 282.341C347.763 282.648 347.909 283.006 347.966 283.415H346.96C346.884 283.116 346.713 282.852 346.449 282.622C346.188 282.389 345.835 282.273 345.392 282.273C345 282.273 344.656 282.375 344.361 282.58C344.068 282.781 343.839 283.067 343.675 283.436C343.513 283.803 343.432 284.233 343.432 284.727C343.432 285.233 343.511 285.673 343.67 286.048C343.832 286.423 344.06 286.714 344.352 286.922C344.648 287.129 344.994 287.233 345.392 287.233C345.653 287.233 345.891 287.188 346.104 287.097C346.317 287.006 346.497 286.875 346.645 286.705C346.793 286.534 346.898 286.33 346.96 286.091H347.966C347.909 286.477 347.768 286.825 347.544 287.135C347.322 287.442 347.028 287.686 346.662 287.868C346.298 288.047 345.875 288.136 345.392 288.136ZM352.18 288.136C351.55 288.136 351.006 287.997 350.548 287.719C350.094 287.438 349.743 287.045 349.496 286.543C349.251 286.037 349.129 285.449 349.129 284.778C349.129 284.108 349.251 283.517 349.496 283.006C349.743 282.491 350.087 282.091 350.527 281.804C350.97 281.514 351.487 281.369 352.078 281.369C352.419 281.369 352.756 281.426 353.088 281.54C353.42 281.653 353.723 281.838 353.996 282.094C354.268 282.347 354.486 282.682 354.648 283.099C354.81 283.517 354.891 284.031 354.891 284.642V285.068H349.845V284.199H353.868C353.868 283.83 353.794 283.5 353.646 283.21C353.501 282.92 353.294 282.692 353.024 282.524C352.757 282.357 352.442 282.273 352.078 282.273C351.678 282.273 351.331 282.372 351.038 282.571C350.749 282.767 350.526 283.023 350.369 283.338C350.213 283.653 350.135 283.991 350.135 284.352V284.932C350.135 285.426 350.22 285.845 350.391 286.189C350.564 286.53 350.804 286.79 351.111 286.969C351.418 287.145 351.774 287.233 352.18 287.233C352.445 287.233 352.683 287.196 352.896 287.122C353.112 287.045 353.298 286.932 353.455 286.781C353.611 286.628 353.732 286.437 353.817 286.21L354.788 286.483C354.686 286.812 354.514 287.102 354.273 287.352C354.031 287.599 353.733 287.793 353.378 287.932C353.023 288.068 352.624 288.136 352.18 288.136ZM357.426 284.062V288H356.42V281.455H357.392V282.477H357.477C357.631 282.145 357.864 281.878 358.176 281.676C358.489 281.472 358.892 281.369 359.386 281.369C359.83 281.369 360.217 281.46 360.55 281.642C360.882 281.821 361.141 282.094 361.325 282.46C361.51 282.824 361.602 283.284 361.602 283.841V288H360.597V283.909C360.597 283.395 360.463 282.994 360.196 282.707C359.929 282.418 359.563 282.273 359.097 282.273C358.776 282.273 358.489 282.342 358.236 282.482C357.986 282.621 357.788 282.824 357.643 283.091C357.499 283.358 357.426 283.682 357.426 284.062ZM366.287 281.455V282.307H362.895V281.455H366.287ZM363.883 279.886H364.889V286.125C364.889 286.409 364.93 286.622 365.012 286.764C365.098 286.903 365.206 286.997 365.336 287.045C365.47 287.091 365.61 287.114 365.758 287.114C365.869 287.114 365.96 287.108 366.031 287.097C366.102 287.082 366.159 287.071 366.201 287.062L366.406 287.966C366.338 287.991 366.243 288.017 366.12 288.043C365.998 288.071 365.843 288.085 365.656 288.085C365.372 288.085 365.093 288.024 364.821 287.902C364.551 287.78 364.326 287.594 364.147 287.344C363.971 287.094 363.883 286.778 363.883 286.398V279.886ZM378.333 282H377.277C377.214 281.696 377.105 281.429 376.949 281.199C376.795 280.969 376.608 280.776 376.386 280.619C376.167 280.46 375.924 280.341 375.657 280.261C375.39 280.182 375.112 280.142 374.822 280.142C374.294 280.142 373.815 280.276 373.386 280.543C372.96 280.81 372.62 281.203 372.368 281.723C372.118 282.243 371.993 282.881 371.993 283.636C371.993 284.392 372.118 285.03 372.368 285.55C372.62 286.07 372.96 286.463 373.386 286.73C373.815 286.997 374.294 287.131 374.822 287.131C375.112 287.131 375.39 287.091 375.657 287.011C375.924 286.932 376.167 286.814 376.386 286.658C376.608 286.499 376.795 286.304 376.949 286.074C377.105 285.841 377.214 285.574 377.277 285.273H378.333C378.254 285.719 378.109 286.118 377.899 286.47C377.689 286.822 377.427 287.122 377.115 287.369C376.802 287.614 376.451 287.8 376.062 287.928C375.676 288.055 375.262 288.119 374.822 288.119C374.078 288.119 373.416 287.938 372.836 287.574C372.257 287.21 371.801 286.693 371.468 286.023C371.136 285.352 370.97 284.557 370.97 283.636C370.97 282.716 371.136 281.92 371.468 281.25C371.801 280.58 372.257 280.062 372.836 279.699C373.416 279.335 374.078 279.153 374.822 279.153C375.262 279.153 375.676 279.217 376.062 279.345C376.451 279.473 376.802 279.661 377.115 279.908C377.427 280.152 377.689 280.45 377.899 280.803C378.109 281.152 378.254 281.551 378.333 282ZM382.564 288.136C381.973 288.136 381.455 287.996 381.009 287.714C380.565 287.433 380.219 287.04 379.969 286.534C379.722 286.028 379.598 285.437 379.598 284.761C379.598 284.08 379.722 283.484 379.969 282.976C380.219 282.467 380.565 282.072 381.009 281.791C381.455 281.51 381.973 281.369 382.564 281.369C383.155 281.369 383.672 281.51 384.115 281.791C384.561 282.072 384.908 282.467 385.155 282.976C385.405 283.484 385.53 284.08 385.53 284.761C385.53 285.437 385.405 286.028 385.155 286.534C384.908 287.04 384.561 287.433 384.115 287.714C383.672 287.996 383.155 288.136 382.564 288.136ZM382.564 287.233C383.013 287.233 383.382 287.118 383.672 286.888C383.962 286.658 384.176 286.355 384.315 285.98C384.455 285.605 384.524 285.199 384.524 284.761C384.524 284.324 384.455 283.916 384.315 283.538C384.176 283.161 383.962 282.855 383.672 282.622C383.382 282.389 383.013 282.273 382.564 282.273C382.115 282.273 381.746 282.389 381.456 282.622C381.166 282.855 380.952 283.161 380.812 283.538C380.673 283.916 380.604 284.324 380.604 284.761C380.604 285.199 380.673 285.605 380.812 285.98C380.952 286.355 381.166 286.658 381.456 286.888C381.746 287.118 382.115 287.233 382.564 287.233ZM388.071 279.273V288H387.065V279.273H388.071ZM392.572 288.136C391.981 288.136 391.462 287.996 391.016 287.714C390.573 287.433 390.227 287.04 389.977 286.534C389.729 286.028 389.606 285.437 389.606 284.761C389.606 284.08 389.729 283.484 389.977 282.976C390.227 282.467 390.573 282.072 391.016 281.791C391.462 281.51 391.981 281.369 392.572 281.369C393.163 281.369 393.68 281.51 394.123 281.791C394.569 282.072 394.915 282.467 395.163 282.976C395.413 283.484 395.538 284.08 395.538 284.761C395.538 285.437 395.413 286.028 395.163 286.534C394.915 287.04 394.569 287.433 394.123 287.714C393.68 287.996 393.163 288.136 392.572 288.136ZM392.572 287.233C393.021 287.233 393.39 287.118 393.68 286.888C393.969 286.658 394.184 286.355 394.323 285.98C394.462 285.605 394.532 285.199 394.532 284.761C394.532 284.324 394.462 283.916 394.323 283.538C394.184 283.161 393.969 282.855 393.68 282.622C393.39 282.389 393.021 282.273 392.572 282.273C392.123 282.273 391.754 282.389 391.464 282.622C391.174 282.855 390.96 283.161 390.82 283.538C390.681 283.916 390.612 284.324 390.612 284.761C390.612 285.199 390.681 285.605 390.82 285.98C390.96 286.355 391.174 286.658 391.464 286.888C391.754 287.118 392.123 287.233 392.572 287.233ZM397.073 288V281.455H398.044V282.443H398.113C398.232 282.119 398.448 281.857 398.76 281.655C399.073 281.453 399.425 281.352 399.817 281.352C399.891 281.352 399.983 281.354 400.094 281.357C400.205 281.359 400.289 281.364 400.346 281.369V282.392C400.311 282.384 400.233 282.371 400.111 282.354C399.992 282.334 399.865 282.324 399.732 282.324C399.414 282.324 399.13 282.391 398.88 282.524C398.632 282.655 398.436 282.837 398.292 283.07C398.15 283.3 398.078 283.562 398.078 283.858V288H397.073Z" fill="black"/>
<path d="M31.6321 332V324.727H36.5327V325.995H33.1697V327.728H36.2805V328.996H33.1697V330.732H36.5469V332H31.6321ZM37.7551 332V324.727H42.6557V325.995H39.2928V327.728H42.4036V328.996H39.2928V330.732H42.6699V332H37.7551ZM43.8782 332V324.727H48.7788V325.995H45.4158V327.728H48.5266V328.996H45.4158V330.732H48.793V332H43.8782ZM52.5794 332H50.0012V324.727H52.6007C53.3322 324.727 53.9619 324.873 54.4899 325.164C55.0178 325.453 55.4238 325.868 55.7079 326.411C55.9944 326.953 56.1376 327.601 56.1376 328.357C56.1376 329.114 55.9944 329.765 55.7079 330.31C55.4238 330.854 55.0154 331.272 54.4828 331.563C53.9525 331.854 53.318 332 52.5794 332ZM51.5389 330.683H52.5154C52.97 330.683 53.3523 330.602 53.6625 330.441C53.975 330.278 54.2093 330.026 54.3656 329.685C54.5242 329.341 54.6035 328.899 54.6035 328.357C54.6035 327.819 54.5242 327.38 54.3656 327.039C54.2093 326.698 53.9761 326.447 53.666 326.286C53.3559 326.125 52.9735 326.045 52.519 326.045H51.5389V330.683ZM57.2766 332V324.727H62.1772V325.995H58.8143V327.728H61.9251V328.996H58.8143V330.732H62.1914V332H57.2766ZM65.9778 332H63.3997V324.727H65.9991C66.7306 324.727 67.3604 324.873 67.8883 325.164C68.4163 325.453 68.8223 325.868 69.1064 326.411C69.3928 326.953 69.536 327.601 69.536 328.357C69.536 329.114 69.3928 329.765 69.1064 330.31C68.8223 330.854 68.4139 331.272 67.8812 331.563C67.3509 331.854 66.7164 332 65.9778 332ZM64.9373 330.683H65.9139C66.3684 330.683 66.7508 330.602 67.0609 330.441C67.3734 330.278 67.6078 330.026 67.764 329.685C67.9226 329.341 68.002 328.899 68.002 328.357C68.002 327.819 67.9226 327.38 67.764 327.039C67.6078 326.698 67.3746 326.447 67.0645 326.286C66.7543 326.125 66.372 326.045 65.9174 326.045H64.9373V330.683Z" fill="#1E1E1E"/>
</svg>
