<svg width="167" height="185" viewBox="0 0 167 185" fill="none" xmlns="http://www.w3.org/2000/svg">
<path d="M22.8435 108.605C18.3027 96.3219 18 94.0472 18 94.0472C24.7385 98.1335 27.3843 107.24 35.2551 104.511C43.1258 101.781 43.1258 100.416 43.1258 100.416C50.3868 94.2264 54.3903 91.8873 61.2891 91.7726C64.7175 92.6609 66.4354 92.6825 70.068 94.0472C73.7007 95.412 81.2687 103.251 87.9286 104.056C94.5884 104.86 95.4966 104.056 95.4966 104.056L99.7347 103.601L102.156 105.421L102.762 108.15L102.459 109.515L101.248 112.245L98.2211 114.974L94.5884 116.339C89.4422 117.249 85.5068 118.159 79.4524 115.884C73.398 113.609 65.2245 111.335 65.2245 111.335C73.398 121.798 83.2018 126.019 98.2211 120.434L108.211 114.519L118.201 104.056L125.163 95.412L126.98 94.5022C131.218 94.0472 133.034 97.6867 131.52 101.326C130.007 104.966 124.255 114.519 124.255 114.519C117.595 124.073 113.357 127.712 105.789 134.082C98.2211 140.451 90.0476 145 76.1224 145C62.1973 145 49.7857 141.815 38.8878 131.352C27.9898 120.888 27.3843 120.888 22.8435 108.605Z" fill="url(#paint0_linear_108_12)"/>
<path d="M144.156 75.3948C148.697 87.6781 149 89.9528 149 89.9528C142.261 85.8665 139.616 76.7596 131.745 79.4892C123.874 82.2188 123.874 83.5836 123.874 83.5836C116.613 89.7736 112.61 92.1127 105.711 92.2274C102.283 91.3391 100.565 91.3175 96.932 89.9528C93.2993 88.588 85.7313 80.7488 79.0714 79.9442C72.4116 79.1395 71.5034 79.9442 71.5034 79.9442L67.2653 80.3991L64.8435 78.5794L64.2381 75.8498L64.5408 74.485L65.7517 71.7553L68.7789 69.0257L72.4116 67.6609C77.5578 66.751 81.4932 65.8412 87.5476 68.1159C93.602 70.3905 101.776 72.6652 101.776 72.6652C93.602 62.2017 83.7982 57.9814 68.7789 63.5665L58.7891 69.4807L48.7993 79.9442L41.8367 88.588L40.0204 89.4978C35.7823 89.9528 33.966 86.3133 35.4796 82.6738C36.9932 79.0343 42.7449 69.4807 42.7449 69.4807C49.4048 59.927 53.6429 56.2875 61.2109 49.9184C68.7789 43.5493 76.9524 39 90.8776 39C104.803 39 117.214 42.1845 128.112 52.648C139.01 63.1116 139.616 63.1116 144.156 75.3948Z" fill="url(#paint1_linear_108_12)"/>
<defs>
<linearGradient id="paint0_linear_108_12" x1="18" y1="118.386" x2="132.048" y2="118.386" gradientUnits="userSpaceOnUse">
<stop stop-color="#009900"/>
<stop offset="0.728526" stop-color="#70C4EE"/>
</linearGradient>
<linearGradient id="paint1_linear_108_12" x1="149" y1="65.6137" x2="34.9524" y2="65.6137" gradientUnits="userSpaceOnUse">
<stop stop-color="#009900"/>
<stop offset="0.728526" stop-color="#70C4EE"/>
</linearGradient>
</defs>
</svg>
