<svg width="329" height="185" viewBox="0 0 329 185" fill="none" xmlns="http://www.w3.org/2000/svg">
<path d="M22.8435 108.605C18.3027 96.3219 18 94.0472 18 94.0472C24.7385 98.1335 27.3843 107.24 35.2551 104.511C43.1258 101.781 43.1258 100.416 43.1258 100.416C50.3868 94.2264 54.3903 91.8873 61.2891 91.7726C64.7175 92.6609 66.4354 92.6825 70.068 94.0472C73.7007 95.412 81.2687 103.251 87.9286 104.056C94.5884 104.86 95.4966 104.056 95.4966 104.056L99.7347 103.601L102.156 105.421L102.762 108.15L102.459 109.515L101.248 112.245L98.2211 114.974L94.5884 116.339C89.4422 117.249 85.5068 118.159 79.4524 115.884C73.398 113.609 65.2245 111.335 65.2245 111.335C73.398 121.798 83.2018 126.019 98.2211 120.434L108.211 114.519L118.201 104.056L125.163 95.412L126.98 94.5022C131.218 94.0472 133.034 97.6867 131.52 101.326C130.007 104.966 124.255 114.519 124.255 114.519C117.595 124.073 113.357 127.712 105.789 134.082C98.2211 140.451 90.0476 145 76.1224 145C62.1973 145 49.7857 141.815 38.8878 131.352C27.9898 120.888 27.3843 120.888 22.8435 108.605Z" fill="url(#paint0_linear_108_4)"/>
<path d="M144.156 75.3948C148.697 87.6781 149 89.9528 149 89.9528C142.261 85.8665 139.616 76.7596 131.745 79.4892C123.874 82.2188 123.874 83.5836 123.874 83.5836C116.613 89.7736 112.61 92.1127 105.711 92.2274C102.283 91.3391 100.565 91.3175 96.932 89.9528C93.2993 88.588 85.7313 80.7488 79.0714 79.9442C72.4116 79.1395 71.5034 79.9442 71.5034 79.9442L67.2653 80.3991L64.8435 78.5794L64.2381 75.8498L64.5408 74.485L65.7517 71.7553L68.7789 69.0257L72.4116 67.6609C77.5578 66.751 81.4932 65.8412 87.5476 68.1159C93.602 70.3905 101.776 72.6652 101.776 72.6652C93.602 62.2017 83.7982 57.9814 68.7789 63.5665L58.7891 69.4807L48.7993 79.9442L41.8367 88.588L40.0204 89.4978C35.7823 89.9528 33.966 86.3133 35.4796 82.6738C36.9932 79.0343 42.7449 69.4807 42.7449 69.4807C49.4048 59.927 53.6429 56.2875 61.2109 49.9184C68.7789 43.5493 76.9524 39 90.8776 39C104.803 39 117.214 42.1845 128.112 52.648C139.01 63.1116 139.616 63.1116 144.156 75.3948Z" fill="url(#paint1_linear_108_4)"/>
<path d="M151.88 92V62.2H162.96C164.987 62.2 166.773 62.5733 168.32 63.32C169.893 64.04 171.12 65.1067 172 66.52C172.88 67.9067 173.32 69.6 173.32 71.6C173.32 73.6533 172.827 75.4 171.84 76.84C170.88 78.28 169.573 79.3467 167.92 80.04L174.76 92H168.6L161.28 78.92L164.8 81H157.32V92H151.88ZM157.32 76.2H163.04C164.027 76.2 164.88 76.0133 165.6 75.64C166.32 75.24 166.88 74.6933 167.28 74C167.68 73.3067 167.88 72.5067 167.88 71.6C167.88 70.6667 167.68 69.8667 167.28 69.2C166.88 68.5067 166.32 67.9733 165.6 67.6C164.88 67.2 164.027 67 163.04 67H157.32V76.2ZM186.994 92.48C184.754 92.48 182.794 91.9733 181.114 90.96C179.434 89.9467 178.128 88.5733 177.194 86.84C176.261 85.1067 175.794 83.1867 175.794 81.08C175.794 78.8933 176.261 76.96 177.194 75.28C178.154 73.5733 179.448 72.2267 181.074 71.24C182.728 70.2533 184.568 69.76 186.594 69.76C188.301 69.76 189.794 70.04 191.074 70.6C192.381 71.16 193.488 71.9333 194.394 72.92C195.301 73.9067 195.994 75.04 196.474 76.32C196.954 77.5733 197.194 78.9333 197.194 80.4C197.194 80.7733 197.168 81.16 197.114 81.56C197.088 81.96 197.021 82.3067 196.914 82.6H180.114V78.6H193.954L191.474 80.48C191.714 79.2533 191.648 78.16 191.274 77.2C190.928 76.24 190.341 75.48 189.514 74.92C188.714 74.36 187.741 74.08 186.594 74.08C185.501 74.08 184.528 74.36 183.674 74.92C182.821 75.4533 182.168 76.2533 181.714 77.32C181.288 78.36 181.128 79.6267 181.234 81.12C181.128 82.4533 181.301 83.64 181.754 84.68C182.234 85.6933 182.928 86.48 183.834 87.04C184.768 87.6 185.834 87.88 187.034 87.88C188.234 87.88 189.248 87.6267 190.074 87.12C190.928 86.6133 191.594 85.9333 192.074 85.08L196.314 87.16C195.888 88.2 195.221 89.12 194.314 89.92C193.408 90.72 192.328 91.3467 191.074 91.8C189.848 92.2533 188.488 92.48 186.994 92.48ZM201.167 92V61.72H206.407V92H201.167ZM211.245 92V70.24H216.485V92H211.245ZM211.245 67.8V62.2H216.485V67.8H211.245ZM231.643 92.48C229.403 92.48 227.443 91.9733 225.763 90.96C224.083 89.9467 222.776 88.5733 221.843 86.84C220.909 85.1067 220.443 83.1867 220.443 81.08C220.443 78.8933 220.909 76.96 221.843 75.28C222.803 73.5733 224.096 72.2267 225.723 71.24C227.376 70.2533 229.216 69.76 231.243 69.76C232.949 69.76 234.443 70.04 235.723 70.6C237.029 71.16 238.136 71.9333 239.043 72.92C239.949 73.9067 240.643 75.04 241.123 76.32C241.603 77.5733 241.843 78.9333 241.843 80.4C241.843 80.7733 241.816 81.16 241.763 81.56C241.736 81.96 241.669 82.3067 241.563 82.6H224.763V78.6H238.603L236.123 80.48C236.363 79.2533 236.296 78.16 235.923 77.2C235.576 76.24 234.989 75.48 234.163 74.92C233.363 74.36 232.389 74.08 231.243 74.08C230.149 74.08 229.176 74.36 228.323 74.92C227.469 75.4533 226.816 76.2533 226.363 77.32C225.936 78.36 225.776 79.6267 225.883 81.12C225.776 82.4533 225.949 83.64 226.403 84.68C226.883 85.6933 227.576 86.48 228.483 87.04C229.416 87.6 230.483 87.88 231.683 87.88C232.883 87.88 233.896 87.6267 234.723 87.12C235.576 86.6133 236.243 85.9333 236.723 85.08L240.963 87.16C240.536 88.2 239.869 89.12 238.963 89.92C238.056 90.72 236.976 91.3467 235.723 91.8C234.496 92.2533 233.136 92.48 231.643 92.48ZM248.335 92V74.92H244.495V70.24H248.335V69.52C248.335 67.8667 248.668 66.4667 249.335 65.32C250.028 64.1467 250.988 63.2533 252.215 62.64C253.442 62.0267 254.895 61.72 256.575 61.72C256.895 61.72 257.242 61.7467 257.615 61.8C258.015 61.8267 258.348 61.8667 258.615 61.92V66.44C258.348 66.3867 258.095 66.36 257.855 66.36C257.642 66.3333 257.442 66.32 257.255 66.32C256.082 66.32 255.175 66.5867 254.535 67.12C253.895 67.6267 253.575 68.4267 253.575 69.52V70.24H258.415V74.92H253.575V92H248.335Z" fill="#112E58"/>
<path d="M179.508 115.82C179.508 117.995 181.676 119.082 186.012 119.082C188.941 119.082 192.62 117.975 197.047 115.762L199.039 114.707C202.06 113.171 203.766 112.839 204.156 113.711C204.26 113.945 204.312 114.219 204.312 114.531C204.312 114.831 204.182 115.143 203.922 115.469C203.674 115.781 203.336 116.133 202.906 116.523C202.477 116.901 201.975 117.305 201.402 117.734C200.829 118.151 200.224 118.568 199.586 118.984L197.672 120.176C197.021 120.566 196.318 120.951 195.562 121.328L192.711 122.734C188.245 124.818 184.033 125.859 180.074 125.859C176.611 125.859 173.948 125.176 172.086 123.809C170.419 122.598 169.586 121.035 169.586 119.121C169.586 116.478 170.777 113.815 173.16 111.133C175.217 108.828 178.036 106.641 181.617 104.57C184.742 102.76 188.076 101.276 191.617 100.117C194.964 99.0104 197.678 98.457 199.762 98.457C200.204 98.457 200.576 98.6003 200.875 98.8867C201.422 99.3945 201.695 99.8958 201.695 100.391C201.695 102.318 200.895 103.874 199.293 105.059C197.926 106.061 196.331 106.562 194.508 106.562C192.685 106.562 191.318 106.38 190.406 106.016C187.008 107.331 184.247 109.095 182.125 111.309C181.24 112.233 180.582 113.099 180.152 113.906C179.723 114.714 179.508 115.352 179.508 115.82ZM209.137 112.363C209.137 112.832 209.312 113.066 209.664 113.066C210.094 113.066 210.647 112.78 211.324 112.207L213.023 110.742C214.82 109.193 216.533 108.418 218.16 108.418C219.215 108.418 220.152 109.297 220.973 111.055C221.689 112.565 222.333 114.818 222.906 117.812C223.01 118.307 223.095 118.555 223.16 118.555C223.238 118.555 223.427 118.438 223.727 118.203C224.039 117.969 224.417 117.669 224.859 117.305C228.049 114.583 229.892 113.066 230.387 112.754C230.895 112.428 231.246 112.214 231.441 112.109C231.637 111.992 231.839 111.888 232.047 111.797C232.568 111.602 232.978 111.504 233.277 111.504C233.85 111.504 234.137 111.803 234.137 112.402C234.137 113.314 233.538 114.642 232.34 116.387C230.999 118.34 229.221 120.286 227.008 122.227C224.43 124.505 222.177 125.645 220.25 125.645C218.219 125.645 216.852 124.277 216.148 121.543C215.966 120.84 215.823 120.182 215.719 119.57L215.426 118.047C215.348 117.643 215.243 117.441 215.113 117.441C214.996 117.441 214.742 117.637 214.352 118.027L212.906 119.492C211.292 121.133 209.938 122.331 208.844 123.086C206.643 124.622 204.716 125.391 203.062 125.391C201.083 125.391 199.918 124.388 199.566 122.383C199.462 121.784 199.41 121.029 199.41 120.117C199.41 119.193 199.54 118.066 199.801 116.738C200.061 115.41 200.419 114.082 200.875 112.754C201.865 109.915 203.095 107.493 204.566 105.488L206.305 103.184C210.51 97.6888 214.026 94.9414 216.852 94.9414C217.49 94.9414 217.952 95.2539 218.238 95.8789C218.329 96.0742 218.375 96.3672 218.375 96.7578C218.375 97.1484 218.206 97.6562 217.867 98.2812C217.529 98.8932 217.112 99.5312 216.617 100.195C216.122 100.859 215.589 101.536 215.016 102.227C214.456 102.904 213.941 103.574 213.473 104.238L212.008 106.367C210.094 109.245 209.137 111.243 209.137 112.363ZM264.879 110.332C265.296 110.332 265.504 110.684 265.504 111.387C265.504 112.598 264.658 114.167 262.965 116.094L261.852 117.227C258.479 120.599 255.302 122.845 252.32 123.965C250.471 124.655 249.143 124.622 248.336 123.867C247.672 123.229 247.145 122.201 246.754 120.781L246.285 119.082L242.125 121.641L239.723 123.008C236.858 124.57 234.71 125.352 233.277 125.352C231.441 125.352 229.911 124.642 228.688 123.223C227.516 121.882 226.93 120.326 226.93 118.555C226.93 116.81 227.626 115.254 229.02 113.887C231.012 111.934 234.156 110.143 238.453 108.516C242.516 106.992 245.797 106.23 248.297 106.23C249.143 106.23 249.566 106.647 249.566 107.48C249.566 108.053 249.456 108.483 249.234 108.77C249.013 109.056 248.557 109.349 247.867 109.648L245.406 110.703C241.76 112.227 239.091 113.809 237.398 115.449C236.917 115.905 236.676 116.348 236.676 116.777C236.676 117.207 237.021 117.422 237.711 117.422C238.388 117.422 239.964 116.693 242.438 115.234L244.059 114.277C246.572 112.767 248.674 112.012 250.367 112.012C251.799 112.012 252.75 112.643 253.219 113.906C253.336 114.245 253.447 114.59 253.551 114.941C253.655 115.28 253.759 115.586 253.863 115.859C254.098 116.497 254.306 116.816 254.488 116.816C254.684 116.816 254.957 116.725 255.309 116.543C255.66 116.348 256.044 116.107 256.461 115.82C256.891 115.521 257.333 115.195 257.789 114.844L260.152 112.949C262.249 111.204 263.824 110.332 264.879 110.332ZM277.809 102.422C277.431 102.734 277.021 102.995 276.578 103.203C276.135 103.398 275.641 103.496 275.094 103.496C274.547 103.496 274.02 103.405 273.512 103.223C273.004 103.04 272.561 102.786 272.184 102.461C271.363 101.758 270.953 100.859 270.953 99.7656C270.953 98.0859 272.359 96.8359 275.172 96.0156C276.122 95.7292 276.904 95.5859 277.516 95.5859C278.128 95.5859 278.583 95.6576 278.883 95.8008C279.195 95.931 279.449 96.1068 279.645 96.3281C280.035 96.7708 280.23 97.2266 280.23 97.6953C280.23 98.151 280.172 98.5677 280.055 98.9453C279.951 99.3229 279.794 99.7135 279.586 100.117C279.378 100.521 279.124 100.924 278.824 101.328C278.525 101.732 278.186 102.096 277.809 102.422ZM272.887 123.926C271.897 124.434 270.934 124.837 269.996 125.137C269.059 125.449 268.134 125.605 267.223 125.605C266.324 125.605 265.387 125.391 264.41 124.961C263.447 124.518 262.587 123.932 261.832 123.203C260.152 121.576 259.312 119.766 259.312 117.773C259.312 115.938 259.859 114.076 260.953 112.188C261.956 110.482 263.232 109.049 264.781 107.891C266.331 106.732 267.77 106.152 269.098 106.152C270.999 106.152 272.014 106.686 272.145 107.754C272.184 108.079 272.203 108.457 272.203 108.887C272.203 109.316 272.099 109.811 271.891 110.371C271.695 110.918 271.435 111.471 271.109 112.031C270.797 112.578 270.445 113.118 270.055 113.652C269.677 114.173 269.312 114.648 268.961 115.078C268.284 115.898 267.743 116.491 267.34 116.855C267.34 117.298 267.672 117.754 268.336 118.223C268.961 118.665 269.488 118.887 269.918 118.887C270.361 118.887 270.875 118.783 271.461 118.574C272.06 118.366 272.672 118.086 273.297 117.734C273.935 117.383 274.579 116.979 275.23 116.523C275.895 116.068 276.546 115.599 277.184 115.117L280.758 112.324C282.177 111.296 283.329 110.781 284.215 110.781C284.566 110.781 284.833 110.911 285.016 111.172C285.211 111.419 285.309 111.712 285.309 112.051C285.309 112.389 285.139 112.858 284.801 113.457C284.462 114.043 283.993 114.694 283.395 115.41C282.809 116.126 282.118 116.875 281.324 117.656C280.53 118.438 279.671 119.206 278.746 119.961C277.822 120.716 276.858 121.439 275.855 122.129C274.866 122.806 273.876 123.405 272.887 123.926ZM302.535 114.512C302.535 115.697 302.88 116.289 303.57 116.289C305.263 116.289 307.464 115.143 310.172 112.852L310.699 112.402C311.754 111.699 312.607 111.348 313.258 111.348C313.922 111.348 314.339 111.445 314.508 111.641C314.69 111.836 314.781 112.148 314.781 112.578C314.781 113.542 314.293 114.564 313.316 115.645C311.858 117.415 309.859 119.095 307.32 120.684C304.378 122.533 301.741 123.457 299.41 123.457C297.783 123.457 296.76 122.552 296.344 120.742C296.227 120.273 296.142 119.824 296.09 119.395C295.96 118.353 295.823 117.773 295.68 117.656C295.536 117.539 295.25 117.552 294.82 117.695C294.404 117.826 293.902 118.053 293.316 118.379C292.743 118.691 292.105 119.076 291.402 119.531C287.678 122.005 285.536 123.418 284.977 123.77C283.635 124.603 282.73 125.02 282.262 125.02C281.793 125.02 281.331 124.922 280.875 124.727C280.432 124.531 280.042 124.284 279.703 123.984C279 123.32 278.648 122.643 278.648 121.953C278.648 118.008 279.508 114.557 281.227 111.602C282.372 109.609 283.779 108.229 285.445 107.461C286.292 107.057 287.203 106.855 288.18 106.855C289.964 106.855 290.855 107.441 290.855 108.613C290.855 109.329 290.432 110.501 289.586 112.129L289 113.281C288.583 114.076 288.382 114.525 288.395 114.629C288.473 115.02 288.648 115.215 288.922 115.215C289.221 115.215 289.664 114.993 290.25 114.551L293.844 111.875L295.641 110.625C297.711 109.271 299.234 108.594 300.211 108.594C300.732 108.594 301.207 108.802 301.637 109.219C302.431 109.974 302.828 110.632 302.828 111.191C302.828 111.374 302.809 111.595 302.77 111.855C302.743 112.116 302.711 112.396 302.672 112.695L302.594 113.613C302.555 113.926 302.535 114.225 302.535 114.512Z" fill="#6FCA4B"/>
<defs>
<linearGradient id="paint0_linear_108_4" x1="18" y1="118.386" x2="132.048" y2="118.386" gradientUnits="userSpaceOnUse">
<stop stop-color="#009900"/>
<stop offset="0.728526" stop-color="#70C4EE"/>
</linearGradient>
<linearGradient id="paint1_linear_108_4" x1="149" y1="65.6137" x2="34.9524" y2="65.6137" gradientUnits="userSpaceOnUse">
<stop stop-color="#009900"/>
<stop offset="0.728526" stop-color="#70C4EE"/>
</linearGradient>
</defs>
</svg>
